<svg width="128" height="128" viewBox="0 0 128 128" fill="none" xmlns="http://www.w3.org/2000/svg">
<rect width="128" height="128" fill="#0E1013"/>
<path fill-rule="evenodd" clip-rule="evenodd" d="M115.575 38.0075C116.022 37.9874 116.467 38.0076 116.911 38.0682C117.074 38.4076 117.013 38.7113 116.728 38.9793C110.372 46.5109 104.341 54.2856 98.6351 62.3033C96.4699 65.5014 94.365 68.7407 92.3207 72.0217C91.9153 72.364 91.4499 72.4652 90.9242 72.3254C90.2886 71.689 89.7422 70.9803 89.2849 70.1995C86.957 66.4332 84.6903 62.6269 82.4847 58.7804C82.0502 57.6476 82.4348 57.2225 83.6383 57.5049C84.8632 58.3251 85.9359 59.3171 86.8562 60.4811C88.0448 62.0349 89.2794 63.5533 90.5599 65.0366C90.8192 65.1137 91.062 65.0732 91.2885 64.9151C93.8523 61.257 96.4631 57.6329 99.1209 54.0427C102.193 50.037 105.492 46.2104 109.018 42.563C110.486 41.1616 112.064 39.9062 113.753 38.7971C114.358 38.4955 114.965 38.2322 115.575 38.0075Z" fill="#6BAEEC"/>
<path fill-rule="evenodd" clip-rule="evenodd" d="M35.5513 43.3525C42.0969 42.9637 47.8042 44.9275 52.6732 49.2443C55.272 51.6805 57.5994 54.3328 59.6555 57.2011C59.9332 57.5996 60.1558 58.0248 60.3234 58.4767C59.7453 59.6333 59.0167 60.6861 58.1376 61.6351C57.9623 61.73 57.8004 61.7097 57.6519 61.5744C55.3649 57.9691 52.5719 54.7904 49.2731 52.0383C45.2311 48.7875 40.6167 47.3702 35.4299 47.7865C28.6765 48.9939 24.2036 52.8611 22.0117 59.3878C20.1255 67.2545 22.4934 73.4702 29.1154 78.0348C36.2941 81.8873 42.9729 81.1584 49.1517 75.8482C51.201 73.9197 53.1236 71.8747 54.9197 69.7135C57.8808 65.82 60.7952 61.8921 63.6628 57.93C66.5835 53.9957 69.9633 50.4931 73.8023 47.4221C79.2353 43.7409 85.1045 42.85 91.41 44.7495C93.6407 45.4694 95.5633 46.6639 97.178 48.3332C97.8828 49.5333 97.5387 50.0395 96.1458 49.8517C88.3096 45.9676 81.0641 46.818 74.4095 52.4027C71.581 55.1104 68.9702 58.0056 66.5771 61.0885C63.2644 65.6579 59.9047 70.1931 56.4983 74.6941C53.4913 78.5538 49.7472 81.449 45.2659 83.3799C36.2004 86.3776 28.4086 84.4137 21.8902 77.4882C17.7008 72.3713 16.2032 66.5403 17.3973 59.9952C19.2203 52.0575 23.9764 46.7731 31.6655 44.1421C32.9642 43.8115 34.2594 43.5482 35.5513 43.3525Z" fill="#ECEAE3"/>
<path fill-rule="evenodd" clip-rule="evenodd" d="M103.31 62.6677C103.51 62.6417 103.692 62.6823 103.857 62.7892C104.012 63.0585 104.133 63.3421 104.221 63.6396C104.425 70.9849 101.692 76.9577 96.0244 81.5578C89.3454 85.7966 82.4643 86.1206 75.381 82.5296C70.5663 79.657 66.6198 75.8708 63.5414 71.1713C63.4421 70.7505 63.4827 70.3455 63.6628 69.9565C63.8724 69.8258 64.095 69.8055 64.3307 69.8958C67.5089 73.4036 71.1114 76.3595 75.1381 78.7637C79.4853 81.2028 84.0998 81.9317 88.9813 80.9504C93.9758 79.5176 97.7605 76.5414 100.335 72.0216C101.837 69.3362 102.728 66.4613 103.007 63.3966C103.076 63.1365 103.177 62.8936 103.31 62.6677Z" fill="#ECEAE3"/>
</svg>
